<svg xmlns="http://www.w3.org/2000/svg" width="512" height="512" xml:space="preserve"><circle fill="#F3CF3D" cx="256" cy="256" r="256"/><path opacity=".1" d="M511.639 269.621 404.442 164.48l-5.775 26.187-90.549-62.374L201 138l-4.906 17.595L191 184.333l-26.052 125.282 19.222 19.222-77.344 53.324L236.565 511.27c6.415.482 12.896.73 19.435.73 136.815 0 248.558-107.327 255.639-242.379z"/><path fill="#42536C" d="M199.015 169.702v-18.98c0-5.926 4.986-10.729 11.139-10.729h91.693c6.153 0 11.141 4.804 11.141 10.729v18.98h7.496V145.17c0-6.961-5.644-12.604-12.604-12.604H204.122c-6.961 0-12.604 5.643-12.604 12.604v24.532h7.497z"/><path fill="#57687C" d="M204.122 129.414h105.854v13.975H204.122z"/><path fill="#42536C" d="M106.319 164.704H405.68v217.882H106.319z"/><path fill="#57687C" d="M106.319 254.876c40.465 11.713 92.679 18.769 149.681 18.769 57.002 0 109.217-7.056 149.681-18.769v-90.172H106.319v90.172z"/><g fill="#E6E7E8"><path d="M247.223 281.563h17.557v2.886h-17.557zM247.223 246.677v32.411h17.557v-32.411h-17.557zM256 277.246a3.039 3.039 0 1 1 0-6.077 3.039 3.039 0 0 1 0 6.077z"/></g></svg>